<svg xmlns="http://www.w3.org/2000/svg" viewBox="0 0 256 256" width="256" height="256" shape-rendering="crispEdges">
  <rect x="200" y="8" width="8" height="8" fill="#ff9933"/>
  <rect x="176" y="16" width="8" height="8" fill="#ff9933"/>
  <rect x="184" y="16" width="8" height="8" fill="#ff9933"/>
  <rect x="192" y="16" width="8" height="8" fill="#ff9933"/>
  <rect x="200" y="16" width="8" height="8" fill="#ff9933"/>
  <rect x="168" y="24" width="8" height="8" fill="#ff9933"/>
  <rect x="176" y="24" width="8" height="8" fill="#ff9933"/>
  <rect x="160" y="32" width="8" height="8" fill="#ff9933"/>
  <rect x="168" y="32" width="8" height="8" fill="#ff9933"/>
  <rect x="200" y="32" width="8" height="8" fill="#ff9933"/>
  <rect x="160" y="40" width="8" height="8" fill="#ff9933"/>
  <rect x="184" y="40" width="8" height="8" fill="#ff9933"/>
  <rect x="192" y="40" width="8" height="8" fill="#ff9933"/>
  <rect x="200" y="40" width="8" height="8" fill="#ff9933"/>
  <rect x="160" y="48" width="8" height="8" fill="#ff9933"/>
  <rect x="184" y="48" width="8" height="8" fill="#ff9933"/>
  <rect x="152" y="56" width="8" height="8" fill="#ff9933"/>
  <rect x="160" y="56" width="8" height="8" fill="#ff9933"/>
  <rect x="176" y="56" width="8" height="8" fill="#ff9933"/>
  <rect x="184" y="56" width="8" height="8" fill="#ff9933"/>
  <rect x="112" y="64" width="8" height="8" fill="#e6162d"/>
  <rect x="72" y="72" width="8" height="8" fill="#e6162d"/>
  <rect x="80" y="72" width="8" height="8" fill="#e6162d"/>
  <rect x="88" y="72" width="8" height="8" fill="#e6162d"/>
  <rect x="96" y="72" width="8" height="8" fill="#e6162d"/>
  <rect x="104" y="72" width="8" height="8" fill="#e6162d"/>
  <rect x="112" y="72" width="8" height="8" fill="#e6162d"/>
  <rect x="120" y="72" width="8" height="8" fill="#e6162d"/>
  <rect x="128" y="72" width="8" height="8" fill="#e6162d"/>
  <rect x="136" y="72" width="8" height="8" fill="#e6162d"/>
  <rect x="144" y="72" width="8" height="8" fill="#e6162d"/>
  <rect x="152" y="72" width="8" height="8" fill="#e6162d"/>
  <rect x="56" y="80" width="8" height="8" fill="#e6162d"/>
  <rect x="64" y="80" width="8" height="8" fill="#e6162d"/>
  <rect x="72" y="80" width="8" height="8" fill="#e6162d"/>
  <rect x="80" y="80" width="8" height="8" fill="#e6162d"/>
  <rect x="88" y="80" width="8" height="8" fill="#e6162d"/>
  <rect x="96" y="80" width="8" height="8" fill="#e6162d"/>
  <rect x="104" y="80" width="8" height="8" fill="#e6162d"/>
  <rect x="112" y="80" width="8" height="8" fill="#e6162d"/>
  <rect x="120" y="80" width="8" height="8" fill="#e6162d"/>
  <rect x="128" y="80" width="8" height="8" fill="#e6162d"/>
  <rect x="136" y="80" width="8" height="8" fill="#e6162d"/>
  <rect x="144" y="80" width="8" height="8" fill="#e6162d"/>
  <rect x="152" y="80" width="8" height="8" fill="#e6162d"/>
  <rect x="160" y="80" width="8" height="8" fill="#e6162d"/>
  <rect x="168" y="80" width="8" height="8" fill="#e6162d"/>
  <rect x="40" y="88" width="8" height="8" fill="#e6162d"/>
  <rect x="48" y="88" width="8" height="8" fill="#e6162d"/>
  <rect x="56" y="88" width="8" height="8" fill="#e6162d"/>
  <rect x="64" y="88" width="8" height="8" fill="#e6162d"/>
  <rect x="72" y="88" width="8" height="8" fill="#e6162d"/>
  <rect x="80" y="88" width="8" height="8" fill="#e6162d"/>
  <rect x="88" y="88" width="8" height="8" fill="#e6162d"/>
  <rect x="96" y="88" width="8" height="8" fill="#e6162d"/>
  <rect x="104" y="88" width="8" height="8" fill="#e6162d"/>
  <rect x="112" y="88" width="8" height="8" fill="#e6162d"/>
  <rect x="120" y="88" width="8" height="8" fill="#e6162d"/>
  <rect x="128" y="88" width="8" height="8" fill="#e6162d"/>
  <rect x="136" y="88" width="8" height="8" fill="#e6162d"/>
  <rect x="144" y="88" width="8" height="8" fill="#e6162d"/>
  <rect x="152" y="88" width="8" height="8" fill="#e6162d"/>
  <rect x="160" y="88" width="8" height="8" fill="#e6162d"/>
  <rect x="168" y="88" width="8" height="8" fill="#e6162d"/>
  <rect x="176" y="88" width="8" height="8" fill="#e6162d"/>
  <rect x="184" y="88" width="8" height="8" fill="#e6162d"/>
  <rect x="32" y="96" width="8" height="8" fill="#e6162d"/>
  <rect x="40" y="96" width="8" height="8" fill="#e6162d"/>
  <rect x="48" y="96" width="8" height="8" fill="#e6162d"/>
  <rect x="56" y="96" width="8" height="8" fill="#e6162d"/>
  <rect x="64" y="96" width="8" height="8" fill="#e6162d"/>
  <rect x="72" y="96" width="8" height="8" fill="#e6162d"/>
  <rect x="80" y="96" width="8" height="8" fill="#e6162d"/>
  <rect x="88" y="96" width="8" height="8" fill="#ffffff"/>
  <rect x="96" y="96" width="8" height="8" fill="#e6162d"/>
  <rect x="104" y="96" width="8" height="8" fill="#e6162d"/>
  <rect x="112" y="96" width="8" height="8" fill="#e6162d"/>
  <rect x="120" y="96" width="8" height="8" fill="#e6162d"/>
  <rect x="128" y="96" width="8" height="8" fill="#e6162d"/>
  <rect x="136" y="96" width="8" height="8" fill="#e6162d"/>
  <rect x="144" y="96" width="8" height="8" fill="#e6162d"/>
  <rect x="152" y="96" width="8" height="8" fill="#e6162d"/>
  <rect x="160" y="96" width="8" height="8" fill="#e6162d"/>
  <rect x="168" y="96" width="8" height="8" fill="#e6162d"/>
  <rect x="176" y="96" width="8" height="8" fill="#e6162d"/>
  <rect x="184" y="96" width="8" height="8" fill="#e6162d"/>
  <rect x="192" y="96" width="8" height="8" fill="#e6162d"/>
  <rect x="24" y="104" width="8" height="8" fill="#e6162d"/>
  <rect x="32" y="104" width="8" height="8" fill="#e6162d"/>
  <rect x="40" y="104" width="8" height="8" fill="#e6162d"/>
  <rect x="48" y="104" width="8" height="8" fill="#e6162d"/>
  <rect x="56" y="104" width="8" height="8" fill="#ffffff"/>
  <rect x="64" y="104" width="8" height="8" fill="#ffffff"/>
  <rect x="72" y="104" width="8" height="8" fill="#ffffff"/>
  <rect x="80" y="104" width="8" height="8" fill="#000000"/>
  <rect x="88" y="104" width="8" height="8" fill="#ffffff"/>
  <rect x="96" y="104" width="8" height="8" fill="#ffffff"/>
  <rect x="104" y="104" width="8" height="8" fill="#ffffff"/>
  <rect x="112" y="104" width="8" height="8" fill="#ffffff"/>
  <rect x="120" y="104" width="8" height="8" fill="#ffffff"/>
  <rect x="128" y="104" width="8" height="8" fill="#e6162d"/>
  <rect x="136" y="104" width="8" height="8" fill="#e6162d"/>
  <rect x="144" y="104" width="8" height="8" fill="#e6162d"/>
  <rect x="152" y="104" width="8" height="8" fill="#e6162d"/>
  <rect x="160" y="104" width="8" height="8" fill="#e6162d"/>
  <rect x="168" y="104" width="8" height="8" fill="#e6162d"/>
  <rect x="176" y="104" width="8" height="8" fill="#e6162d"/>
  <rect x="184" y="104" width="8" height="8" fill="#e6162d"/>
  <rect x="192" y="104" width="8" height="8" fill="#e6162d"/>
  <rect x="200" y="104" width="8" height="8" fill="#e6162d"/>
  <rect x="24" y="112" width="8" height="8" fill="#e6162d"/>
  <rect x="32" y="112" width="8" height="8" fill="#e6162d"/>
  <rect x="40" y="112" width="8" height="8" fill="#e6162d"/>
  <rect x="48" y="112" width="8" height="8" fill="#ffffff"/>
  <rect x="56" y="112" width="8" height="8" fill="#ffffff"/>
  <rect x="64" y="112" width="8" height="8" fill="#000000"/>
  <rect x="72" y="112" width="8" height="8" fill="#000000"/>
  <rect x="80" y="112" width="8" height="8" fill="#000000"/>
  <rect x="88" y="112" width="8" height="8" fill="#000000"/>
  <rect x="96" y="112" width="8" height="8" fill="#000000"/>
  <rect x="104" y="112" width="8" height="8" fill="#ffffff"/>
  <rect x="112" y="112" width="8" height="8" fill="#ffffff"/>
  <rect x="120" y="112" width="8" height="8" fill="#ffffff"/>
  <rect x="128" y="112" width="8" height="8" fill="#ffffff"/>
  <rect x="136" y="112" width="8" height="8" fill="#e6162d"/>
  <rect x="144" y="112" width="8" height="8" fill="#e6162d"/>
  <rect x="152" y="112" width="8" height="8" fill="#e6162d"/>
  <rect x="160" y="112" width="8" height="8" fill="#e6162d"/>
  <rect x="168" y="112" width="8" height="8" fill="#e6162d"/>
  <rect x="176" y="112" width="8" height="8" fill="#e6162d"/>
  <rect x="184" y="112" width="8" height="8" fill="#e6162d"/>
  <rect x="192" y="112" width="8" height="8" fill="#e6162d"/>
  <rect x="200" y="112" width="8" height="8" fill="#e6162d"/>
  <rect x="16" y="120" width="8" height="8" fill="#e6162d"/>
  <rect x="24" y="120" width="8" height="8" fill="#e6162d"/>
  <rect x="32" y="120" width="8" height="8" fill="#e6162d"/>
  <rect x="40" y="120" width="8" height="8" fill="#ffffff"/>
  <rect x="48" y="120" width="8" height="8" fill="#ffffff"/>
  <rect x="56" y="120" width="8" height="8" fill="#ffffff"/>
  <rect x="64" y="120" width="8" height="8" fill="#000000"/>
  <rect x="72" y="120" width="8" height="8" fill="#000000"/>
  <rect x="80" y="120" width="8" height="8" fill="#000000"/>
  <rect x="88" y="120" width="8" height="8" fill="#000000"/>
  <rect x="96" y="120" width="8" height="8" fill="#000000"/>
  <rect x="104" y="120" width="8" height="8" fill="#ffffff"/>
  <rect x="112" y="120" width="8" height="8" fill="#ffffff"/>
  <rect x="120" y="120" width="8" height="8" fill="#ffffff"/>
  <rect x="128" y="120" width="8" height="8" fill="#ffffff"/>
  <rect x="136" y="120" width="8" height="8" fill="#ffffff"/>
  <rect x="144" y="120" width="8" height="8" fill="#e6162d"/>
  <rect x="152" y="120" width="8" height="8" fill="#e6162d"/>
  <rect x="160" y="120" width="8" height="8" fill="#e6162d"/>
  <rect x="168" y="120" width="8" height="8" fill="#e6162d"/>
  <rect x="176" y="120" width="8" height="8" fill="#e6162d"/>
  <rect x="184" y="120" width="8" height="8" fill="#e6162d"/>
  <rect x="192" y="120" width="8" height="8" fill="#e6162d"/>
  <rect x="200" y="120" width="8" height="8" fill="#e6162d"/>
  <rect x="208" y="120" width="8" height="8" fill="#e6162d"/>
  <rect x="16" y="128" width="8" height="8" fill="#e6162d"/>
  <rect x="24" y="128" width="8" height="8" fill="#e6162d"/>
  <rect x="32" y="128" width="8" height="8" fill="#e6162d"/>
  <rect x="40" y="128" width="8" height="8" fill="#ffffff"/>
  <rect x="48" y="128" width="8" height="8" fill="#ffffff"/>
  <rect x="56" y="128" width="8" height="8" fill="#000000"/>
  <rect x="64" y="128" width="8" height="8" fill="#000000"/>
  <rect x="72" y="128" width="8" height="8" fill="#000000"/>
  <rect x="80" y="128" width="8" height="8" fill="#000000"/>
  <rect x="88" y="128" width="8" height="8" fill="#000000"/>
  <rect x="96" y="128" width="8" height="8" fill="#000000"/>
  <rect x="104" y="128" width="8" height="8" fill="#000000"/>
  <rect x="112" y="128" width="8" height="8" fill="#ffffff"/>
  <rect x="120" y="128" width="8" height="8" fill="#ffffff"/>
  <rect x="128" y="128" width="8" height="8" fill="#ffffff"/>
  <rect x="136" y="128" width="8" height="8" fill="#ffffff"/>
  <rect x="144" y="128" width="8" height="8" fill="#e6162d"/>
  <rect x="152" y="128" width="8" height="8" fill="#e6162d"/>
  <rect x="160" y="128" width="8" height="8" fill="#e6162d"/>
  <rect x="168" y="128" width="8" height="8" fill="#e6162d"/>
  <rect x="176" y="128" width="8" height="8" fill="#e6162d"/>
  <rect x="184" y="128" width="8" height="8" fill="#e6162d"/>
  <rect x="192" y="128" width="8" height="8" fill="#e6162d"/>
  <rect x="200" y="128" width="8" height="8" fill="#e6162d"/>
  <rect x="208" y="128" width="8" height="8" fill="#e6162d"/>
  <rect x="16" y="136" width="8" height="8" fill="#e6162d"/>
  <rect x="24" y="136" width="8" height="8" fill="#e6162d"/>
  <rect x="32" y="136" width="8" height="8" fill="#ffffff"/>
  <rect x="40" y="136" width="8" height="8" fill="#ffffff"/>
  <rect x="48" y="136" width="8" height="8" fill="#ffffff"/>
  <rect x="56" y="136" width="8" height="8" fill="#ffffff"/>
  <rect x="64" y="136" width="8" height="8" fill="#000000"/>
  <rect x="72" y="136" width="8" height="8" fill="#000000"/>
  <rect x="80" y="136" width="8" height="8" fill="#000000"/>
  <rect x="88" y="136" width="8" height="8" fill="#000000"/>
  <rect x="96" y="136" width="8" height="8" fill="#000000"/>
  <rect x="104" y="136" width="8" height="8" fill="#ffffff"/>
  <rect x="112" y="136" width="8" height="8" fill="#ffffff"/>
  <rect x="120" y="136" width="8" height="8" fill="#ffffff"/>
  <rect x="128" y="136" width="8" height="8" fill="#ffffff"/>
  <rect x="136" y="136" width="8" height="8" fill="#ffffff"/>
  <rect x="144" y="136" width="8" height="8" fill="#ffffff"/>
  <rect x="152" y="136" width="8" height="8" fill="#e6162d"/>
  <rect x="160" y="136" width="8" height="8" fill="#e6162d"/>
  <rect x="168" y="136" width="8" height="8" fill="#e6162d"/>
  <rect x="176" y="136" width="8" height="8" fill="#e6162d"/>
  <rect x="184" y="136" width="8" height="8" fill="#e6162d"/>
  <rect x="192" y="136" width="8" height="8" fill="#e6162d"/>
  <rect x="200" y="136" width="8" height="8" fill="#e6162d"/>
  <rect x="208" y="136" width="8" height="8" fill="#e6162d"/>
  <rect x="8" y="144" width="8" height="8" fill="#e6162d"/>
  <rect x="16" y="144" width="8" height="8" fill="#e6162d"/>
  <rect x="24" y="144" width="8" height="8" fill="#e6162d"/>
  <rect x="32" y="144" width="8" height="8" fill="#e6162d"/>
  <rect x="40" y="144" width="8" height="8" fill="#ffffff"/>
  <rect x="48" y="144" width="8" height="8" fill="#ffffff"/>
  <rect x="56" y="144" width="8" height="8" fill="#ffffff"/>
  <rect x="64" y="144" width="8" height="8" fill="#000000"/>
  <rect x="72" y="144" width="8" height="8" fill="#000000"/>
  <rect x="80" y="144" width="8" height="8" fill="#000000"/>
  <rect x="88" y="144" width="8" height="8" fill="#000000"/>
  <rect x="96" y="144" width="8" height="8" fill="#000000"/>
  <rect x="104" y="144" width="8" height="8" fill="#ffffff"/>
  <rect x="112" y="144" width="8" height="8" fill="#ffffff"/>
  <rect x="120" y="144" width="8" height="8" fill="#ffffff"/>
  <rect x="128" y="144" width="8" height="8" fill="#ffffff"/>
  <rect x="136" y="144" width="8" height="8" fill="#ffffff"/>
  <rect x="144" y="144" width="8" height="8" fill="#e6162d"/>
  <rect x="152" y="144" width="8" height="8" fill="#e6162d"/>
  <rect x="160" y="144" width="8" height="8" fill="#e6162d"/>
  <rect x="168" y="144" width="8" height="8" fill="#e6162d"/>
  <rect x="176" y="144" width="8" height="8" fill="#e6162d"/>
  <rect x="184" y="144" width="8" height="8" fill="#e6162d"/>
  <rect x="192" y="144" width="8" height="8" fill="#e6162d"/>
  <rect x="200" y="144" width="8" height="8" fill="#e6162d"/>
  <rect x="208" y="144" width="8" height="8" fill="#e6162d"/>
  <rect x="216" y="144" width="8" height="8" fill="#e6162d"/>
  <rect x="16" y="152" width="8" height="8" fill="#e6162d"/>
  <rect x="24" y="152" width="8" height="8" fill="#e6162d"/>
  <rect x="32" y="152" width="8" height="8" fill="#e6162d"/>
  <rect x="40" y="152" width="8" height="8" fill="#ffffff"/>
  <rect x="48" y="152" width="8" height="8" fill="#ffffff"/>
  <rect x="56" y="152" width="8" height="8" fill="#ffffff"/>
  <rect x="64" y="152" width="8" height="8" fill="#ffffff"/>
  <rect x="72" y="152" width="8" height="8" fill="#ffffff"/>
  <rect x="80" y="152" width="8" height="8" fill="#000000"/>
  <rect x="88" y="152" width="8" height="8" fill="#ffffff"/>
  <rect x="96" y="152" width="8" height="8" fill="#ffffff"/>
  <rect x="104" y="152" width="8" height="8" fill="#ffffff"/>
  <rect x="112" y="152" width="8" height="8" fill="#ffffff"/>
  <rect x="120" y="152" width="8" height="8" fill="#ffffff"/>
  <rect x="128" y="152" width="8" height="8" fill="#ffffff"/>
  <rect x="136" y="152" width="8" height="8" fill="#ffffff"/>
  <rect x="144" y="152" width="8" height="8" fill="#e6162d"/>
  <rect x="152" y="152" width="8" height="8" fill="#e6162d"/>
  <rect x="160" y="152" width="8" height="8" fill="#e6162d"/>
  <rect x="168" y="152" width="8" height="8" fill="#e6162d"/>
  <rect x="176" y="152" width="8" height="8" fill="#e6162d"/>
  <rect x="184" y="152" width="8" height="8" fill="#e6162d"/>
  <rect x="192" y="152" width="8" height="8" fill="#e6162d"/>
  <rect x="200" y="152" width="8" height="8" fill="#e6162d"/>
  <rect x="208" y="152" width="8" height="8" fill="#e6162d"/>
  <rect x="16" y="160" width="8" height="8" fill="#e6162d"/>
  <rect x="24" y="160" width="8" height="8" fill="#e6162d"/>
  <rect x="32" y="160" width="8" height="8" fill="#e6162d"/>
  <rect x="40" y="160" width="8" height="8" fill="#e6162d"/>
  <rect x="48" y="160" width="8" height="8" fill="#ffffff"/>
  <rect x="56" y="160" width="8" height="8" fill="#ffffff"/>
  <rect x="64" y="160" width="8" height="8" fill="#ffffff"/>
  <rect x="72" y="160" width="8" height="8" fill="#ffffff"/>
  <rect x="80" y="160" width="8" height="8" fill="#ffffff"/>
  <rect x="88" y="160" width="8" height="8" fill="#ffffff"/>
  <rect x="96" y="160" width="8" height="8" fill="#ffffff"/>
  <rect x="104" y="160" width="8" height="8" fill="#ffffff"/>
  <rect x="112" y="160" width="8" height="8" fill="#ffffff"/>
  <rect x="120" y="160" width="8" height="8" fill="#ffffff"/>
  <rect x="128" y="160" width="8" height="8" fill="#ffffff"/>
  <rect x="136" y="160" width="8" height="8" fill="#e6162d"/>
  <rect x="144" y="160" width="8" height="8" fill="#e6162d"/>
  <rect x="152" y="160" width="8" height="8" fill="#e6162d"/>
  <rect x="160" y="160" width="8" height="8" fill="#e6162d"/>
  <rect x="168" y="160" width="8" height="8" fill="#e6162d"/>
  <rect x="176" y="160" width="8" height="8" fill="#e6162d"/>
  <rect x="184" y="160" width="8" height="8" fill="#e6162d"/>
  <rect x="192" y="160" width="8" height="8" fill="#e6162d"/>
  <rect x="200" y="160" width="8" height="8" fill="#e6162d"/>
  <rect x="208" y="160" width="8" height="8" fill="#e6162d"/>
  <rect x="16" y="168" width="8" height="8" fill="#e6162d"/>
  <rect x="24" y="168" width="8" height="8" fill="#e6162d"/>
  <rect x="32" y="168" width="8" height="8" fill="#e6162d"/>
  <rect x="40" y="168" width="8" height="8" fill="#e6162d"/>
  <rect x="48" y="168" width="8" height="8" fill="#e6162d"/>
  <rect x="56" y="168" width="8" height="8" fill="#ffffff"/>
  <rect x="64" y="168" width="8" height="8" fill="#ffffff"/>
  <rect x="72" y="168" width="8" height="8" fill="#ffffff"/>
  <rect x="80" y="168" width="8" height="8" fill="#ffffff"/>
  <rect x="88" y="168" width="8" height="8" fill="#ffffff"/>
  <rect x="96" y="168" width="8" height="8" fill="#ffffff"/>
  <rect x="104" y="168" width="8" height="8" fill="#ffffff"/>
  <rect x="112" y="168" width="8" height="8" fill="#ffffff"/>
  <rect x="120" y="168" width="8" height="8" fill="#ffffff"/>
  <rect x="128" y="168" width="8" height="8" fill="#e6162d"/>
  <rect x="136" y="168" width="8" height="8" fill="#e6162d"/>
  <rect x="144" y="168" width="8" height="8" fill="#e6162d"/>
  <rect x="152" y="168" width="8" height="8" fill="#e6162d"/>
  <rect x="160" y="168" width="8" height="8" fill="#e6162d"/>
  <rect x="168" y="168" width="8" height="8" fill="#e6162d"/>
  <rect x="176" y="168" width="8" height="8" fill="#e6162d"/>
  <rect x="184" y="168" width="8" height="8" fill="#e6162d"/>
  <rect x="192" y="168" width="8" height="8" fill="#e6162d"/>
  <rect x="200" y="168" width="8" height="8" fill="#e6162d"/>
  <rect x="208" y="168" width="8" height="8" fill="#e6162d"/>
  <rect x="24" y="176" width="8" height="8" fill="#e6162d"/>
  <rect x="32" y="176" width="8" height="8" fill="#e6162d"/>
  <rect x="40" y="176" width="8" height="8" fill="#e6162d"/>
  <rect x="48" y="176" width="8" height="8" fill="#e6162d"/>
  <rect x="56" y="176" width="8" height="8" fill="#e6162d"/>
  <rect x="64" y="176" width="8" height="8" fill="#e6162d"/>
  <rect x="72" y="176" width="8" height="8" fill="#e6162d"/>
  <rect x="80" y="176" width="8" height="8" fill="#e6162d"/>
  <rect x="88" y="176" width="8" height="8" fill="#ffffff"/>
  <rect x="96" y="176" width="8" height="8" fill="#e6162d"/>
  <rect x="104" y="176" width="8" height="8" fill="#e6162d"/>
  <rect x="112" y="176" width="8" height="8" fill="#e6162d"/>
  <rect x="120" y="176" width="8" height="8" fill="#e6162d"/>
  <rect x="128" y="176" width="8" height="8" fill="#e6162d"/>
  <rect x="136" y="176" width="8" height="8" fill="#e6162d"/>
  <rect x="144" y="176" width="8" height="8" fill="#e6162d"/>
  <rect x="152" y="176" width="8" height="8" fill="#e6162d"/>
  <rect x="160" y="176" width="8" height="8" fill="#e6162d"/>
  <rect x="168" y="176" width="8" height="8" fill="#e6162d"/>
  <rect x="176" y="176" width="8" height="8" fill="#e6162d"/>
  <rect x="184" y="176" width="8" height="8" fill="#e6162d"/>
  <rect x="192" y="176" width="8" height="8" fill="#e6162d"/>
  <rect x="200" y="176" width="8" height="8" fill="#e6162d"/>
  <rect x="24" y="184" width="8" height="8" fill="#e6162d"/>
  <rect x="32" y="184" width="8" height="8" fill="#e6162d"/>
  <rect x="40" y="184" width="8" height="8" fill="#e6162d"/>
  <rect x="48" y="184" width="8" height="8" fill="#e6162d"/>
  <rect x="56" y="184" width="8" height="8" fill="#e6162d"/>
  <rect x="64" y="184" width="8" height="8" fill="#e6162d"/>
  <rect x="72" y="184" width="8" height="8" fill="#e6162d"/>
  <rect x="80" y="184" width="8" height="8" fill="#e6162d"/>
  <rect x="88" y="184" width="8" height="8" fill="#e6162d"/>
  <rect x="96" y="184" width="8" height="8" fill="#e6162d"/>
  <rect x="104" y="184" width="8" height="8" fill="#e6162d"/>
  <rect x="112" y="184" width="8" height="8" fill="#e6162d"/>
  <rect x="120" y="184" width="8" height="8" fill="#e6162d"/>
  <rect x="128" y="184" width="8" height="8" fill="#e6162d"/>
  <rect x="136" y="184" width="8" height="8" fill="#e6162d"/>
  <rect x="144" y="184" width="8" height="8" fill="#e6162d"/>
  <rect x="152" y="184" width="8" height="8" fill="#e6162d"/>
  <rect x="160" y="184" width="8" height="8" fill="#e6162d"/>
  <rect x="168" y="184" width="8" height="8" fill="#e6162d"/>
  <rect x="176" y="184" width="8" height="8" fill="#e6162d"/>
  <rect x="184" y="184" width="8" height="8" fill="#e6162d"/>
  <rect x="192" y="184" width="8" height="8" fill="#e6162d"/>
  <rect x="200" y="184" width="8" height="8" fill="#e6162d"/>
  <rect x="32" y="192" width="8" height="8" fill="#e6162d"/>
  <rect x="40" y="192" width="8" height="8" fill="#e6162d"/>
  <rect x="48" y="192" width="8" height="8" fill="#e6162d"/>
  <rect x="56" y="192" width="8" height="8" fill="#e6162d"/>
  <rect x="64" y="192" width="8" height="8" fill="#e6162d"/>
  <rect x="72" y="192" width="8" height="8" fill="#e6162d"/>
  <rect x="80" y="192" width="8" height="8" fill="#e6162d"/>
  <rect x="88" y="192" width="8" height="8" fill="#e6162d"/>
  <rect x="96" y="192" width="8" height="8" fill="#e6162d"/>
  <rect x="104" y="192" width="8" height="8" fill="#e6162d"/>
  <rect x="112" y="192" width="8" height="8" fill="#e6162d"/>
  <rect x="120" y="192" width="8" height="8" fill="#e6162d"/>
  <rect x="128" y="192" width="8" height="8" fill="#e6162d"/>
  <rect x="136" y="192" width="8" height="8" fill="#e6162d"/>
  <rect x="144" y="192" width="8" height="8" fill="#e6162d"/>
  <rect x="152" y="192" width="8" height="8" fill="#e6162d"/>
  <rect x="160" y="192" width="8" height="8" fill="#e6162d"/>
  <rect x="168" y="192" width="8" height="8" fill="#e6162d"/>
  <rect x="176" y="192" width="8" height="8" fill="#e6162d"/>
  <rect x="184" y="192" width="8" height="8" fill="#e6162d"/>
  <rect x="192" y="192" width="8" height="8" fill="#e6162d"/>
  <rect x="40" y="200" width="8" height="8" fill="#e6162d"/>
  <rect x="48" y="200" width="8" height="8" fill="#e6162d"/>
  <rect x="56" y="200" width="8" height="8" fill="#e6162d"/>
  <rect x="64" y="200" width="8" height="8" fill="#e6162d"/>
  <rect x="72" y="200" width="8" height="8" fill="#e6162d"/>
  <rect x="80" y="200" width="8" height="8" fill="#e6162d"/>
  <rect x="88" y="200" width="8" height="8" fill="#e6162d"/>
  <rect x="96" y="200" width="8" height="8" fill="#e6162d"/>
  <rect x="104" y="200" width="8" height="8" fill="#e6162d"/>
  <rect x="112" y="200" width="8" height="8" fill="#e6162d"/>
  <rect x="120" y="200" width="8" height="8" fill="#e6162d"/>
  <rect x="128" y="200" width="8" height="8" fill="#e6162d"/>
  <rect x="136" y="200" width="8" height="8" fill="#e6162d"/>
  <rect x="144" y="200" width="8" height="8" fill="#e6162d"/>
  <rect x="152" y="200" width="8" height="8" fill="#e6162d"/>
  <rect x="160" y="200" width="8" height="8" fill="#e6162d"/>
  <rect x="168" y="200" width="8" height="8" fill="#e6162d"/>
  <rect x="176" y="200" width="8" height="8" fill="#e6162d"/>
  <rect x="184" y="200" width="8" height="8" fill="#e6162d"/>
  <rect x="56" y="208" width="8" height="8" fill="#e6162d"/>
  <rect x="64" y="208" width="8" height="8" fill="#e6162d"/>
  <rect x="72" y="208" width="8" height="8" fill="#e6162d"/>
  <rect x="80" y="208" width="8" height="8" fill="#e6162d"/>
  <rect x="88" y="208" width="8" height="8" fill="#e6162d"/>
  <rect x="96" y="208" width="8" height="8" fill="#e6162d"/>
  <rect x="104" y="208" width="8" height="8" fill="#e6162d"/>
  <rect x="112" y="208" width="8" height="8" fill="#e6162d"/>
  <rect x="120" y="208" width="8" height="8" fill="#e6162d"/>
  <rect x="128" y="208" width="8" height="8" fill="#e6162d"/>
  <rect x="136" y="208" width="8" height="8" fill="#e6162d"/>
  <rect x="144" y="208" width="8" height="8" fill="#e6162d"/>
  <rect x="152" y="208" width="8" height="8" fill="#e6162d"/>
  <rect x="160" y="208" width="8" height="8" fill="#e6162d"/>
  <rect x="168" y="208" width="8" height="8" fill="#e6162d"/>
  <rect x="72" y="216" width="8" height="8" fill="#e6162d"/>
  <rect x="80" y="216" width="8" height="8" fill="#e6162d"/>
  <rect x="88" y="216" width="8" height="8" fill="#e6162d"/>
  <rect x="96" y="216" width="8" height="8" fill="#e6162d"/>
  <rect x="104" y="216" width="8" height="8" fill="#e6162d"/>
  <rect x="112" y="216" width="8" height="8" fill="#e6162d"/>
  <rect x="120" y="216" width="8" height="8" fill="#e6162d"/>
  <rect x="128" y="216" width="8" height="8" fill="#e6162d"/>
  <rect x="136" y="216" width="8" height="8" fill="#e6162d"/>
  <rect x="144" y="216" width="8" height="8" fill="#e6162d"/>
  <rect x="152" y="216" width="8" height="8" fill="#e6162d"/>
  <rect x="112" y="224" width="8" height="8" fill="#e6162d"/>
</svg>
